PowerhouseFilar-Regular.ufo
<glyph name="exclam" format="2">
  <advance width="255"/>
  <unicode hex="0021"/>
  <outline>
    <contour>
      <point x="179" y="700" type="line"/>
      <point x="76" y="700" type="line"/>
      <point x="99" y="227" type="line"/>
      <point x="156" y="227" type="line"/>
    </contour>
    <component base="period" xOffset="-5"/>
  </outline>
</glyph>
<glyph name="quotesingle" format="2">
  <advance width="249"/>
  <unicode hex="0027"/>
  <outline>
    <contour>
      <point x="70" y="700" type="line"/>
      <point x="91" y="412" type="line"/>
      <point x="158" y="412" type="line"/>
      <point x="179" y="700" type="line"/>
    </contour>
  </outline>
</glyph>
<glyph name="asterisk" format="2">
  <advance width="430"/>
  <unicode hex="002A"/>
  <outline>
    <contour>
      <point x="69" y="368" type="line"/>
      <point x="125" y="326" type="line"/>
      <point x="215" y="450" type="line"/>
      <point x="305" y="326" type="line"/>
      <point x="361" y="368" type="line"/>
      <point x="270" y="494" type="line"/>
      <point x="405" y="538" type="line"/>
      <point x="384" y="604" type="line"/>
      <point x="250" y="561" type="line"/>
      <point x="250" y="700" type="line"/>
      <point x="180" y="700" type="line"/>
      <point x="180" y="561" type="line"/>
      <point x="46" y="604" type="line"/>
      <point x="25" y="538" type="line"/>
      <point x="160" y="494" type="line"/>
    </contour>
  </outline>
</glyph>
<glyph name="one" format="2">
  <advance width="427"/>
  <unicode hex="0031"/>
  <outline>
    <contour>
      <point x="219" y="700" type="line"/>
      <point x="219" y="588"/>
      <point x="179" y="555"/>
      <point x="45" y="555" type="curve"/>
      <point x="45" y="490" type="line"/>
      <point x="265" y="490" type="line"/>
      <point x="208" y="540" type="line"/>
      <point x="208" y="0" type="line"/>
      <point x="298" y="0" type="line"/>
      <point x="298" y="700" type="line"/>
    </contour>
    <contour>
      <point x="208" y="0" type="line"/>
      <point x="298" y="0" type="line"/>
      <point x="298" y="75" type="line"/>
      <point x="208" y="75" type="line"/>
    </contour>
  </outline>
</glyph>
<glyph name="four" format="2">
  <advance width="621"/>
  <unicode hex="0034"/>
  <outline>
    <contour>
      <point x="459" y="700" type="line"/>
      <point x="364" y="700" type="line"/>
      <point x="31" y="261" type="line"/>
      <point x="31" y="183" type="line"/>
      <point x="590" y="183" type="line"/>
      <point x="590" y="260" type="line"/>
      <point x="59" y="260" type="line"/>
      <point x="79" y="196" type="line"/>
      <point x="431" y="661" type="line"/>
      <point x="370" y="661" type="line"/>
      <point x="370" y="0" type="line"/>
      <point x="459" y="0" type="line"/>
    </contour>
  </outline>
</glyph>
<glyph name="six" format="2">
  <advance width="575"/>
  <unicode hex="0036"/>
  <outline>
    <contour>
      <point x="294" y="-12" type="curve" smooth="yes"/>
      <point x="443" y="-12"/>
      <point x="530" y="97"/>
      <point x="530" y="228" type="curve" smooth="yes"/>
      <point x="530" y="378"/>
      <point x="432" y="468"/>
      <point x="313" y="468" type="curve" smooth="yes"/>
      <point x="219" y="468"/>
      <point x="131" y="409"/>
      <point x="115" y="305" type="curve"/>
      <point x="142" y="305" type="line"/>
      <point x="142" y="369" type="line" smooth="yes"/>
      <point x="142" y="526.0"/>
      <point x="222" y="637"/>
      <point x="327" y="637" type="curve" smooth="yes"/>
      <point x="391.0" y="637.0"/>
      <point x="432" y="595"/>
      <point x="436" y="544" type="curve"/>
      <point x="526" y="530" type="line"/>
      <point x="520" y="623"/>
      <point x="457" y="712"/>
      <point x="331" y="712" type="curve" smooth="yes"/>
      <point x="177.0" y="712.0"/>
      <point x="50" y="579"/>
      <point x="50" y="331" type="curve" smooth="yes"/>
      <point x="50" y="221.0"/>
      <point x="65" y="148"/>
      <point x="103" y="90" type="curve" smooth="yes"/>
      <point x="146" y="22"/>
      <point x="219" y="-12"/>
    </contour>
    <contour>
      <point x="294" y="64" type="curve" smooth="yes"/>
      <point x="210" y="64"/>
      <point x="147" y="131"/>
      <point x="147" y="228" type="curve" smooth="yes"/>
      <point x="147" y="324"/>
      <point x="210" y="392"/>
      <point x="294" y="392" type="curve" smooth="yes"/>
      <point x="379" y="392"/>
      <point x="440" y="323"/>
      <point x="440" y="226" type="curve" smooth="yes"/>
      <point x="440" y="128"/>
      <point x="377" y="64"/>
    </contour>
  </outline>
</glyph>
<glyph name="question" format="2">
  <advance width="481"/>
  <unicode hex="003F"/>
  <outline>
    <contour>
      <point x="187" y="227" type="line"/>
      <point x="268" y="227" type="line"/>
      <point x="268" y="238" type="line" smooth="yes"/>
      <point x="268" y="282"/>
      <point x="289" y="314"/>
      <point x="335" y="350" type="curve" smooth="yes"/>
      <point x="384" y="389"/>
      <point x="446" y="434"/>
      <point x="446" y="531" type="curve" smooth="yes"/>
      <point x="446" y="641"/>
      <point x="363" y="712"/>
      <point x="240" y="712" type="curve" smooth="yes"/>
      <point x="120" y="712"/>
      <point x="41" y="648"/>
      <point x="22" y="540" type="curve"/>
      <point x="110" y="517" type="line"/>
      <point x="122" y="588"/>
      <point x="160" y="634"/>
      <point x="236" y="634" type="curve" smooth="yes"/>
      <point x="309" y="634"/>
      <point x="355" y="594"/>
      <point x="355" y="531" type="curve" smooth="yes"/>
      <point x="355" y="481"/>
      <point x="326" y="447"/>
      <point x="278" y="407" type="curve" smooth="yes"/>
      <point x="213" y="352"/>
      <point x="187" y="320"/>
      <point x="187" y="245" type="curve" smooth="yes"/>
    </contour>
    <contour>
      <point x="175" y="124" type="line"/>
      <point x="175" y="0" type="line"/>
      <point x="280" y="0" type="line"/>
      <point x="280" y="124" type="line"/>
    </contour>
  </outline>
</glyph>
<glyph name="at" format="2">
  <advance width="862"/>
  <unicode hex="0040"/>
  <outline>
    <contour>
      <point x="45" y="221" type="curve" smooth="yes"/>
      <point x="45" y="8"/>
      <point x="182" y="-130"/>
      <point x="416" y="-130" type="curve" smooth="yes"/>
      <point x="508" y="-130"/>
      <point x="604" y="-106"/>
      <point x="678" y="-60" type="curve"/>
      <point x="651" y="1" type="line"/>
      <point x="579" y="-40"/>
      <point x="501" y="-61"/>
      <point x="416" y="-61" type="curve" smooth="yes"/>
      <point x="227" y="-61"/>
      <point x="120" y="49"/>
      <point x="120" y="221" type="curve" smooth="yes"/>
      <point x="120" y="427"/>
      <point x="274" y="567"/>
      <point x="468" y="567" type="curve" smooth="yes"/>
      <point x="602" y="567"/>
      <point x="742" y="503"/>
      <point x="742" y="306" type="curve" smooth="yes"/>
      <point x="742" y="181"/>
      <point x="682" y="126"/>
      <point x="627" y="126" type="curve" smooth="yes"/>
      <point x="599" y="126"/>
      <point x="586" y="143"/>
      <point x="590" y="179" type="curve" smooth="yes"/>
      <point x="619" y="451" type="line"/>
      <point x="535" y="451" type="line"/>
      <point x="530" y="401" type="line"/>
      <point x="509" y="436"/>
      <point x="466" y="457"/>
      <point x="415" y="457" type="curve" smooth="yes"/>
      <point x="322" y="457"/>
      <point x="241" y="387"/>
      <point x="227" y="264" type="curve" smooth="yes"/>
      <point x="212" y="131"/>
      <point x="285" y="52"/>
      <point x="386" y="52" type="curve" smooth="yes"/>
      <point x="436" y="52"/>
      <point x="479" y="70"/>
      <point x="507" y="108" type="curve"/>
      <point x="521" y="73"/>
      <point x="560" y="52"/>
      <point x="610" y="52" type="curve" smooth="yes"/>
      <point x="719" y="52"/>
      <point x="817" y="140"/>
      <point x="817" y="306" type="curve" smooth="yes"/>
      <point x="817" y="543"/>
      <point x="643" y="636"/>
      <point x="468" y="636" type="curve" smooth="yes"/>
      <point x="235" y="636"/>
      <point x="45" y="472"/>
    </contour>
    <contour>
      <point x="517" y="250" type="curve" smooth="yes"/>
      <point x="509" y="175"/>
      <point x="467" y="122"/>
      <point x="405" y="122" type="curve" smooth="yes"/>
      <point x="342" y="122"/>
      <point x="304" y="175"/>
      <point x="313" y="261" type="curve" smooth="yes"/>
      <point x="321" y="335"/>
      <point x="361" y="387"/>
      <point x="424" y="387" type="curve" smooth="yes"/>
      <point x="487" y="387"/>
      <point x="526" y="334"/>
    </contour>
  </outline>
</glyph>
<glyph name="A" format="2">
  <advance width="670"/>
  <unicode hex="0041"/>
  <outline>
    <contour>
      <point x="288" y="700" type="line"/>
      <point x="24" y="0" type="line"/>
      <point x="118" y="0" type="line"/>
      <point x="354" y="632" type="line"/>
      <point x="313" y="632" type="line"/>
      <point x="551" y="0" type="line"/>
      <point x="646" y="0" type="line"/>
      <point x="380" y="700" type="line"/>
    </contour>
    <contour>
      <point x="161" y="289" type="line"/>
      <point x="161" y="210" type="line"/>
      <point x="503" y="210" type="line"/>
      <point x="503" y="289" type="line"/>
    </contour>
  </outline>
</glyph>
<glyph name="D" format="2">
  <advance width="766"/>
  <unicode hex="0044"/>
  <guideline x="353.2663806552264" y="700.1150546021844" angle="90" name="center" identifier="CqOe9pQ2DS"/>
  <outline>
    <contour>
      <point x="131" y="82" type="line"/>
      <point x="131" y="0" type="line"/>
      <point x="389" y="0" type="line" smooth="yes"/>
      <point x="589" y="0"/>
      <point x="711" y="149"/>
      <point x="711" y="350" type="curve" smooth="yes"/>
      <point x="711" y="551"/>
      <point x="589" y="700"/>
      <point x="389" y="700" type="curve" smooth="yes"/>
      <point x="130" y="700" type="line"/>
      <point x="130" y="618" type="line"/>
      <point x="382" y="618" type="line" smooth="yes"/>
      <point x="534.0" y="618.0"/>
      <point x="619" y="516"/>
      <point x="619" y="350" type="curve" smooth="yes"/>
      <point x="619" y="184"/>
      <point x="534.0" y="82.0"/>
      <point x="382" y="82" type="curve" smooth="yes"/>
    </contour>
    <contour>
      <point x="97" y="0" type="line"/>
      <point x="188" y="0" type="line"/>
      <point x="188" y="700" type="line"/>
      <point x="97" y="700" type="line"/>
    </contour>
  </outline>
</glyph>
<glyph name="H" format="2">
  <advance width="736"/>
  <unicode hex="0048"/>
  <outline>
    <contour>
      <point x="144" y="320" type="line"/>
      <point x="593" y="320" type="line"/>
      <point x="593" y="402" type="line"/>
      <point x="144" y="402" type="line"/>
    </contour>
    <contour>
      <point x="548" y="700" type="line"/>
      <point x="548" y="0" type="line"/>
      <point x="639" y="0" type="line"/>
      <point x="639" y="700" type="line"/>
    </contour>
    <contour>
      <point x="97" y="700" type="line"/>
      <point x="97" y="0" type="line"/>
      <point x="188" y="0" type="line"/>
      <point x="188" y="700" type="line"/>
    </contour>
  </outline>
</glyph>
<glyph name="J" format="2">
  <advance width="605"/>
  <unicode hex="004A"/>
  <guideline x="468" y="700" angle="90" name="center" identifier="KvoJXLkZyT"/>
  <outline>
    <contour>
      <point x="283" y="69" type="curve" smooth="yes"/>
      <point x="201" y="69"/>
      <point x="138" y="113"/>
      <point x="136" y="229" type="curve"/>
      <point x="40" y="239" type="line"/>
      <point x="41" y="79"/>
      <point x="138" y="-12"/>
      <point x="284" y="-12" type="curve" smooth="yes"/>
      <point x="431" y="-12"/>
      <point x="513" y="79"/>
      <point x="513" y="222" type="curve" smooth="yes"/>
      <point x="513" y="700" type="line"/>
      <point x="423" y="700" type="line"/>
      <point x="423" y="226" type="line" smooth="yes"/>
      <point x="423" y="128"/>
      <point x="380" y="69"/>
    </contour>
  </outline>
</glyph>
<glyph name="L" format="2">
  <advance width="630"/>
  <unicode hex="004C"/>
  <guideline x="142" y="700" angle="90" name="acute" identifier="V6HVXnwLb1"/>
  <outline>
    <contour>
      <point x="132" y="82" type="line"/>
      <point x="132" y="0" type="line"/>
      <point x="591" y="0" type="line"/>
      <point x="591" y="82" type="line"/>
    </contour>
    <contour>
      <point x="97" y="700" type="line"/>
      <point x="97" y="0" type="line"/>
      <point x="188" y="0" type="line"/>
      <point x="188" y="700" type="line"/>
    </contour>
  </outline>
</glyph>
<glyph name="l" format="2">
  <advance width="250"/>
  <unicode hex="006C"/>
  <outline>
    <contour>
      <point x="81" y="69" type="line"/>
      <point x="81" y="0" type="line"/>
      <point x="169" y="0" type="line"/>
      <point x="169" y="69" type="line"/>
    </contour>
    <contour>
      <point x="81" y="700" type="line"/>
      <point x="81" y="631" type="line"/>
      <point x="169" y="631" type="line"/>
      <point x="169" y="700" type="line"/>
    </contour>
    <contour>
      <point x="81" y="700" type="line"/>
      <point x="81" y="0" type="line"/>
      <point x="169" y="0" type="line"/>
      <point x="169" y="700" type="line"/>
    </contour>
  </outline>
</glyph>
<glyph name="w" format="2">
  <advance width="747"/>
  <unicode hex="0077"/>
  <outline>
    <contour>
      <point x="182" y="0" type="line"/>
      <point x="258" y="0" type="line"/>
      <point x="383" y="404" type="line"/>
      <point x="361" y="404" type="line"/>
      <point x="490" y="0" type="line"/>
      <point x="567" y="0" type="line"/>
      <point x="725" y="490" type="line"/>
      <point x="639" y="490" type="line"/>
      <point x="506" y="50" type="line"/>
      <point x="553" y="50" type="line"/>
      <point x="414" y="490" type="line"/>
      <point x="331" y="490" type="line"/>
      <point x="203" y="56" type="line"/>
      <point x="245" y="56" type="line"/>
      <point x="112" y="490" type="line"/>
      <point x="22" y="490" type="line"/>
    </contour>
  </outline>
</glyph>
<glyph name="bar" format="2">
  <advance width="243"/>
  <unicode hex="007C"/>
  <outline>
    <contour>
      <point x="80" y="745" type="line"/>
      <point x="80" y="-113" type="line"/>
      <point x="163" y="-113" type="line"/>
      <point x="163" y="745" type="line"/>
    </contour>
  </outline>
</glyph>
<glyph name="braceright" format="2">
  <advance width="370"/>
  <unicode hex="007D"/>
  <outline>
    <contour>
      <point x="156" y="172" type="line" smooth="yes"/>
      <point x="156" y="251"/>
      <point x="169" y="296"/>
      <point x="232" y="316" type="curve"/>
      <point x="169" y="336"/>
      <point x="156" y="381"/>
      <point x="156" y="460" type="curve" smooth="yes"/>
      <point x="156" y="578" type="line" smooth="yes"/>
      <point x="156" y="645"/>
      <point x="129" y="674"/>
      <point x="54" y="674" type="curve" smooth="yes"/>
      <point x="40" y="674" type="line"/>
      <point x="40" y="745" type="line"/>
      <point x="69" y="745" type="line" smooth="yes"/>
      <point x="185" y="745"/>
      <point x="245" y="679"/>
      <point x="245" y="564" type="curve" smooth="yes"/>
      <point x="245" y="438" type="line" smooth="yes"/>
      <point x="245" y="375"/>
      <point x="273" y="353"/>
      <point x="323" y="353" type="curve" smooth="yes"/>
      <point x="360" y="353" type="line"/>
      <point x="360" y="279" type="line"/>
      <point x="323" y="279" type="line" smooth="yes"/>
      <point x="273" y="279"/>
      <point x="245" y="257"/>
      <point x="245" y="194" type="curve" smooth="yes"/>
      <point x="245" y="68" type="line" smooth="yes"/>
      <point x="245" y="-48"/>
      <point x="223" y="-113"/>
      <point x="69" y="-113" type="curve" smooth="yes"/>
      <point x="40" y="-113" type="line"/>
      <point x="40" y="-41" type="line"/>
      <point x="54" y="-41" type="line" smooth="yes"/>
      <point x="129" y="-41"/>
      <point x="156" y="-15"/>
      <point x="156" y="53" type="curve" smooth="yes"/>
    </contour>
  </outline>
</glyph>
<glyph name="asciitilde" format="2">
  <advance width="535"/>
  <unicode hex="007E"/>
  <outline>
    <contour>
      <point x="352" y="246" type="curve" smooth="yes"/>
      <point x="415.0" y="246.0"/>
      <point x="466" y="303"/>
      <point x="475" y="391" type="curve"/>
      <point x="402" y="391" type="line"/>
      <point x="397" y="357"/>
      <point x="376" y="328"/>
      <point x="347" y="328" type="curve" smooth="yes"/>
      <point x="306.0" y="328.0"/>
      <point x="247" y="386"/>
      <point x="183" y="386" type="curve" smooth="yes"/>
      <point x="120.0" y="386.0"/>
      <point x="69" y="330"/>
      <point x="60" y="242" type="curve"/>
      <point x="133" y="242" type="line"/>
      <point x="138" y="276"/>
      <point x="159" y="304"/>
      <point x="188" y="304" type="curve" smooth="yes"/>
      <point x="229.0" y="304.0"/>
      <point x="288" y="246"/>
    </contour>
  </outline>
</glyph>
<glyph name="sterling" format="2">
  <advance width="618"/>
  <unicode hex="00A3"/>
  <outline>
    <contour>
      <point x="101" y="491" type="curve" smooth="yes"/>
      <point x="101" y="368"/>
      <point x="190" y="290"/>
      <point x="190" y="201" type="curve" smooth="yes"/>
      <point x="190" y="132"/>
      <point x="143" y="77"/>
      <point x="70" y="77" type="curve" smooth="yes"/>
      <point x="57" y="77" type="line"/>
      <point x="57" y="0" type="line"/>
      <point x="553" y="0" type="line"/>
      <point x="553" y="77" type="line"/>
      <point x="208" y="77" type="line"/>
      <point x="257" y="109"/>
      <point x="280" y="156"/>
      <point x="280" y="206" type="curve" smooth="yes"/>
      <point x="280" y="305"/>
      <point x="190" y="386"/>
      <point x="190" y="490" type="curve" smooth="yes"/>
      <point x="190" y="564"/>
      <point x="229" y="635"/>
      <point x="330" y="635" type="curve" smooth="yes"/>
      <point x="412" y="635"/>
      <point x="459" y="577"/>
      <point x="459" y="516" type="curve" smooth="yes"/>
      <point x="459" y="501"/>
      <point x="456" y="488"/>
      <point x="452" y="479" type="curve"/>
      <point x="534" y="471" type="line"/>
      <point x="541" y="489"/>
      <point x="544" y="508"/>
      <point x="544" y="524" type="curve" smooth="yes"/>
      <point x="544" y="627"/>
      <point x="465" y="712"/>
      <point x="330" y="712" type="curve" smooth="yes"/>
      <point x="172" y="712"/>
      <point x="101" y="602"/>
    </contour>
    <contour>
      <point x="438" y="266" type="line"/>
      <point x="438" y="336" type="line"/>
      <point x="70" y="336" type="line"/>
      <point x="70" y="266" type="line"/>
    </contour>
  </outline>
</glyph>
<glyph name="yen" format="2">
  <advance width="628"/>
  <unicode hex="00A5"/>
  <outline>
    <contour>
      <point x="269" y="329" type="line"/>
      <point x="269" y="0" type="line"/>
      <point x="359" y="0" type="line"/>
      <point x="359" y="329" type="line"/>
      <point x="594" y="700" type="line"/>
      <point x="499" y="700" type="line"/>
      <point x="295" y="377" type="line"/>
      <point x="334" y="377" type="line"/>
      <point x="130" y="700" type="line"/>
      <point x="34" y="700" type="line"/>
    </contour>
    <contour>
      <point x="80" y="247" type="line"/>
      <point x="80" y="177" type="line"/>
      <point x="548" y="177" type="line"/>
      <point x="548" y="247" type="line"/>
    </contour>
    <contour>
      <point x="80" y="387" type="line"/>
      <point x="80" y="317" type="line"/>
      <point x="548" y="317" type="line"/>
      <point x="548" y="387" type="line"/>
    </contour>
  </outline>
</glyph>
<glyph name="ordfeminine" format="2">
  <advance width="405"/>
  <unicode hex="00AA"/>
  <outline>
    <contour>
      <point x="16" y="420" type="curve" smooth="yes"/>
      <point x="16" y="347"/>
      <point x="69" y="301"/>
      <point x="153" y="301" type="curve" smooth="yes"/>
      <point x="211" y="301"/>
      <point x="251" y="321"/>
      <point x="277" y="355" type="curve"/>
      <point x="289" y="316"/>
      <point x="319" y="305"/>
      <point x="355" y="305" type="curve" smooth="yes"/>
      <point x="365" y="305"/>
      <point x="376" y="306"/>
      <point x="382" y="307" type="curve"/>
      <point x="382" y="370" type="line"/>
      <point x="374" y="370" type="line" smooth="yes"/>
      <point x="356" y="370"/>
      <point x="349" y="381"/>
      <point x="349" y="398" type="curve" smooth="yes"/>
      <point x="349" y="586" type="line" smooth="yes"/>
      <point x="349" y="666"/>
      <point x="296" y="712"/>
      <point x="194" y="712" type="curve" smooth="yes"/>
      <point x="77" y="712"/>
      <point x="36" y="650"/>
      <point x="32" y="590" type="curve"/>
      <point x="113" y="578" type="line"/>
      <point x="116" y="613"/>
      <point x="131" y="648"/>
      <point x="194" y="648" type="curve" smooth="yes"/>
      <point x="247" y="648"/>
      <point x="273" y="624"/>
      <point x="273" y="583" type="curve" smooth="yes"/>
      <point x="273" y="553" type="line"/>
      <point x="151" y="539" type="line" smooth="yes"/>
      <point x="71" y="530"/>
      <point x="16" y="492"/>
    </contour>
    <contour>
      <point x="273" y="454" type="line" smooth="yes"/>
      <point x="273" y="407"/>
      <point x="221" y="364"/>
      <point x="161" y="364" type="curve" smooth="yes"/>
      <point x="121" y="364"/>
      <point x="95" y="383"/>
      <point x="95" y="420" type="curve" smooth="yes"/>
      <point x="95" y="457"/>
      <point x="120" y="477"/>
      <point x="165" y="482" type="curve" smooth="yes"/>
      <point x="273" y="495" type="line"/>
    </contour>
  </outline>
</glyph>
<glyph name="idieresis" format="2">
  <advance width="250"/>
  <unicode hex="00EF"/>
  <outline>
    <contour>
      <point x="-9" y="700" type="line"/>
      <point x="-9" y="597" type="line"/>
      <point x="87" y="597" type="line"/>
      <point x="87" y="700" type="line"/>
    </contour>
    <contour>
      <point x="164" y="700" type="line"/>
      <point x="164" y="597" type="line"/>
      <point x="260" y="597" type="line"/>
      <point x="260" y="700" type="line"/>
    </contour>
    <component base="dotlessi"/>
  </outline>
</glyph>
<glyph name="oslash" format="2">
  <advance width="566"/>
  <unicode hex="00F8"/>
  <outline>
    <contour>
      <point x="44" y="9" type="line"/>
      <point x="93" y="-32" type="line"/>
      <point x="522" y="481" type="line"/>
      <point x="473" y="522" type="line"/>
    </contour>
    <contour>
      <point x="283" y="-12" type="curve" smooth="yes"/>
      <point x="417" y="-12"/>
      <point x="520" y="87"/>
      <point x="520" y="245" type="curve" smooth="yes"/>
      <point x="520" y="403"/>
      <point x="417" y="502"/>
      <point x="283" y="502" type="curve" smooth="yes"/>
      <point x="149" y="502"/>
      <point x="46" y="403"/>
      <point x="46" y="245" type="curve" smooth="yes"/>
      <point x="46" y="87"/>
      <point x="149" y="-12"/>
    </contour>
    <contour>
      <point x="283" y="432" type="curve" smooth="yes"/>
      <point x="375" y="432"/>
      <point x="431" y="360"/>
      <point x="431" y="245" type="curve" smooth="yes"/>
      <point x="431" y="130"/>
      <point x="375" y="58"/>
      <point x="283" y="58" type="curve" smooth="yes"/>
      <point x="191" y="58"/>
      <point x="135" y="130"/>
      <point x="135" y="245" type="curve" smooth="yes"/>
      <point x="135" y="360"/>
      <point x="191" y="432"/>
    </contour>
  </outline>
</glyph>
<glyph name="eogonek" format="2">
  <advance width="548"/>
  <unicode hex="0119"/>
  <outline>
    <contour>
      <point x="309" y="-196" type="curve" smooth="yes"/>
      <point x="330" y="-196"/>
      <point x="354" y="-193"/>
      <point x="377" y="-186" type="curve"/>
      <point x="377" y="-125" type="line"/>
      <point x="357" y="-130"/>
      <point x="341" y="-133"/>
      <point x="323" y="-133" type="curve" smooth="yes"/>
      <point x="293" y="-133"/>
      <point x="276" y="-123"/>
      <point x="276" y="-100" type="curve" smooth="yes"/>
      <point x="276" y="-65"/>
      <point x="316" y="-24"/>
      <point x="374" y="1" type="curve" smooth="yes"/>
      <point x="438" y="29"/>
      <point x="482" y="75"/>
      <point x="502" y="142" type="curve"/>
      <point x="425" y="164" type="line"/>
      <point x="407" y="100"/>
      <point x="358" y="58"/>
      <point x="283" y="58" type="curve" smooth="yes"/>
      <point x="196" y="58"/>
      <point x="140" y="116"/>
      <point x="134" y="226" type="curve"/>
      <point x="502" y="226" type="line"/>
      <point x="502" y="242" type="line" smooth="yes"/>
      <point x="502" y="393"/>
      <point x="417" y="502"/>
      <point x="283" y="502" type="curve" smooth="yes"/>
      <point x="148" y="502"/>
      <point x="46" y="404"/>
      <point x="46" y="244" type="curve" smooth="yes"/>
      <point x="46" y="85"/>
      <point x="150" y="-12"/>
      <point x="280" y="-12" type="curve" smooth="yes"/>
      <point x="284.0" y="-12.0"/>
      <point x="293" y="-11"/>
      <point x="298" y="-10" type="curve"/>
      <point x="292" y="4" type="line"/>
      <point x="232" y="-35"/>
      <point x="201" y="-67"/>
      <point x="201" y="-115" type="curve" smooth="yes"/>
      <point x="201" y="-162"/>
      <point x="234" y="-196"/>
    </contour>
    <contour>
      <point x="283" y="432" type="curve" smooth="yes"/>
      <point x="355" y="432"/>
      <point x="405" y="388"/>
      <point x="416" y="292" type="curve"/>
      <point x="138" y="292" type="line"/>
      <point x="152" y="379"/>
      <point x="205" y="432"/>
    </contour>
  </outline>
</glyph>
<glyph name="hbar" format="2">
  <advance width="556"/>
  <unicode hex="0127"/>
  <outline>
    <contour>
      <point x="314" y="554" type="line"/>
      <point x="314" y="619" type="line"/>
      <point x="6" y="619" type="line"/>
      <point x="6" y="554" type="line"/>
    </contour>
    <component base="h"/>
  </outline>
</glyph>
<glyph name="itilde" format="2">
  <advance width="250"/>
  <unicode hex="0129"/>
  <outline>
    <contour>
      <point x="73" y="677" type="curve" smooth="yes"/>
      <point x="25" y="677"/>
      <point x="1" y="635"/>
      <point x="-2" y="570" type="curve"/>
      <point x="56" y="570" type="line"/>
      <point x="59" y="598"/>
      <point x="64" y="611"/>
      <point x="80" y="611" type="curve" smooth="yes"/>
      <point x="105" y="611"/>
      <point x="140" y="580"/>
      <point x="177" y="580" type="curve" smooth="yes"/>
      <point x="225" y="580"/>
      <point x="249" y="621"/>
      <point x="252" y="686" type="curve"/>
      <point x="194" y="686" type="line"/>
      <point x="192" y="658"/>
      <point x="186" y="645"/>
      <point x="170" y="645" type="curve" smooth="yes"/>
      <point x="145" y="645"/>
      <point x="110" y="677"/>
    </contour>
    <component base="dotlessi"/>
  </outline>
</glyph>
<glyph name="ibreve" format="2">
  <advance width="250"/>
  <unicode hex="012D"/>
  <outline>
    <contour>
      <point x="-5" y="700" type="line"/>
      <point x="-5" y="626"/>
      <point x="41" y="565"/>
      <point x="125" y="565" type="curve" smooth="yes"/>
      <point x="209" y="565"/>
      <point x="253" y="626"/>
      <point x="255" y="700" type="curve"/>
      <point x="189" y="700" type="line"/>
      <point x="189" y="658"/>
      <point x="168" y="627"/>
      <point x="125" y="627" type="curve" smooth="yes"/>
      <point x="82" y="627"/>
      <point x="61" y="658"/>
      <point x="61" y="700" type="curve"/>
    </contour>
    <component base="dotlessi"/>
  </outline>
</glyph>
<glyph name="dotlessi" format="2">
  <advance width="250"/>
  <unicode hex="0131"/>
  <outline>
    <contour>
      <point x="81" y="490" type="line"/>
      <point x="81" y="421" type="line"/>
      <point x="169" y="421" type="line"/>
      <point x="169" y="490" type="line"/>
    </contour>
    <contour>
      <point x="81" y="69" type="line"/>
      <point x="81" y="0" type="line"/>
      <point x="169" y="0" type="line"/>
      <point x="169" y="69" type="line"/>
    </contour>
    <contour>
      <point x="81" y="490" type="line"/>
      <point x="81" y="0" type="line"/>
      <point x="169" y="0" type="line"/>
      <point x="169" y="490" type="line"/>
    </contour>
  </outline>
</glyph>
<glyph name="IJ" format="2">
  <advance width="860"/>
  <unicode hex="0132"/>
  <outline>
    <contour>
      <point x="555" y="69" type="curve" smooth="yes"/>
      <point x="480.0" y="69"/>
      <point x="423" y="116"/>
      <point x="421" y="230" type="curve"/>
      <point x="325" y="240" type="line"/>
      <point x="326" y="82"/>
      <point x="417" y="-12"/>
      <point x="556" y="-12" type="curve" smooth="yes"/>
      <point x="687.0" y="-12.0"/>
      <point x="768.0" y="74.0"/>
      <point x="768" y="193" type="curve" smooth="yes"/>
      <point x="768" y="700" type="line"/>
      <point x="678" y="700" type="line"/>
      <point x="678" y="197" type="line" smooth="yes"/>
      <point x="678.0" y="123.0"/>
      <point x="636" y="69"/>
    </contour>
    <contour>
      <point x="97" y="700" type="line"/>
      <point x="97" y="0" type="line"/>
      <point x="188" y="0" type="line"/>
      <point x="188" y="700" type="line"/>
    </contour>
  </outline>
</glyph>
<glyph name="ldot" format="2">
  <advance width="347"/>
  <unicode hex="0140"/>
  <outline>
    <contour>
      <point x="249" y="433" type="line"/>
      <point x="249" y="317" type="line"/>
      <point x="348" y="317" type="line"/>
      <point x="348" y="433" type="line"/>
    </contour>
    <component base="l"/>
  </outline>
</glyph>
<glyph name="OE" format="2">
  <advance width="1211"/>
  <unicode hex="0152"/>
  <outline>
    <contour>
      <point x="638" y="700" type="line"/>
      <point x="638" y="0" type="line"/>
      <point x="729" y="0" type="line"/>
      <point x="729" y="700" type="line"/>
    </contour>
    <contour>
      <point x="673" y="618" type="line"/>
      <point x="1149" y="618" type="line"/>
      <point x="1149" y="700" type="line"/>
      <point x="673" y="700" type="line"/>
    </contour>
    <contour>
      <point x="683" y="315" type="line"/>
      <point x="1011" y="315" type="line"/>
      <point x="1011" y="396" type="line"/>
      <point x="683" y="396" type="line"/>
    </contour>
    <contour>
      <point x="677" y="0" type="line"/>
      <point x="1167" y="0" type="line"/>
      <point x="1167" y="82" type="line"/>
      <point x="677" y="82" type="line"/>
    </contour>
    <contour>
      <point x="393" y="712" type="curve" smooth="yes"/>
      <point x="203" y="712"/>
      <point x="55" y="564"/>
      <point x="55" y="350" type="curve" smooth="yes"/>
      <point x="55" y="136"/>
      <point x="203" y="-12"/>
      <point x="393" y="-12" type="curve" smooth="yes"/>
      <point x="582" y="-12"/>
      <point x="720" y="136"/>
      <point x="720" y="350" type="curve" smooth="yes"/>
      <point x="720" y="564"/>
      <point x="582" y="712"/>
    </contour>
    <contour>
      <point x="393" y="69" type="curve" smooth="yes"/>
      <point x="251" y="69"/>
      <point x="148" y="181"/>
      <point x="148" y="350" type="curve" smooth="yes"/>
      <point x="148" y="519"/>
      <point x="251" y="631"/>
      <point x="393" y="631" type="curve" smooth="yes"/>
      <point x="535" y="631"/>
      <point x="638" y="519"/>
      <point x="638" y="350" type="curve" smooth="yes"/>
      <point x="638" y="181"/>
      <point x="535" y="69"/>
    </contour>
  </outline>
</glyph>
<glyph name="Tbar" format="2">
  <advance width="675"/>
  <unicode hex="0166"/>
  <outline>
    <contour>
      <point x="137" y="325" type="line"/>
      <point x="538" y="325" type="line"/>
      <point x="538" y="403" type="line"/>
      <point x="137" y="403" type="line"/>
    </contour>
    <component base="T"/>
  </outline>
</glyph>
<glyph name="Nhookleft" format="2">
  <advance width="774"/>
  <unicode hex="019D"/>
  <outline>
    <contour>
      <point x="646" y="40" type="line"/>
      <point x="224" y="700" type="line"/>
      <point x="97" y="700" type="line"/>
      <point x="97" y="0" type="line"/>
      <point x="186" y="0" type="line"/>
      <point x="186" y="657" type="line"/>
      <point x="153" y="657" type="line"/>
      <point x="574" y="0" type="line"/>
      <point x="677" y="0" type="line"/>
      <point x="677" y="700" type="line"/>
      <point x="588" y="700" type="line"/>
      <point x="588" y="40" type="line"/>
    </contour>
    <contour>
      <point x="21" y="-112" type="curve" smooth="yes"/>
      <point x="11.0" y="-112.0"/>
      <point x="-6" y="-111"/>
      <point x="-23" y="-106" type="curve"/>
      <point x="-23" y="-185" type="line"/>
      <point x="-1" y="-190"/>
      <point x="16" y="-192"/>
      <point x="34" y="-192" type="curve" smooth="yes"/>
      <point x="117.0" y="-192.0"/>
      <point x="186" y="-148"/>
      <point x="186" y="-57" type="curve" smooth="yes"/>
      <point x="186" y="80" type="line"/>
      <point x="97" y="80" type="line"/>
      <point x="97" y="-49" type="line" smooth="yes"/>
      <point x="97" y="-95"/>
      <point x="61" y="-112"/>
    </contour>
  </outline>
</glyph>
<glyph name="Uhorn" format="2">
  <advance width="736"/>
  <unicode hex="01AF"/>
  <outline>
    <contour>
      <point x="92" y="256" type="line" smooth="yes"/>
      <point x="92" y="96"/>
      <point x="201" y="-12"/>
      <point x="369" y="-12" type="curve" smooth="yes"/>
      <point x="537" y="-12"/>
      <point x="644" y="96"/>
      <point x="644" y="256" type="curve" smooth="yes"/>
      <point x="644" y="700" type="line"/>
      <point x="554" y="700" type="line"/>
      <point x="554" y="264" type="line" smooth="yes"/>
      <point x="554" y="145"/>
      <point x="487" y="71"/>
      <point x="369" y="71" type="curve" smooth="yes"/>
      <point x="251" y="71"/>
      <point x="183" y="145"/>
      <point x="183" y="264" type="curve" smooth="yes"/>
      <point x="183" y="700" type="line"/>
      <point x="92" y="700" type="line"/>
    </contour>
    <component base="horncmb.uc" xOffset="390"/>
  </outline>
</glyph>
<glyph name="Oogonek" format="2">
  <advance width="786"/>
  <unicode hex="01EA"/>
  <outline>
    <contour>
      <point x="432" y="-196" type="curve" smooth="yes"/>
      <point x="453" y="-196"/>
      <point x="477" y="-193"/>
      <point x="500" y="-186" type="curve"/>
      <point x="500" y="-125" type="line"/>
      <point x="480" y="-130"/>
      <point x="464" y="-133"/>
      <point x="446" y="-133" type="curve" smooth="yes"/>
      <point x="416" y="-133"/>
      <point x="399" y="-123"/>
      <point x="399" y="-100" type="curve" smooth="yes"/>
      <point x="399" y="-65"/>
      <point x="440" y="-21"/>
      <point x="506" y="5" type="curve" smooth="yes"/>
      <point x="639" y="57"/>
      <point x="731" y="177"/>
      <point x="731" y="350" type="curve" smooth="yes"/>
      <point x="731" y="564"/>
      <point x="583" y="712"/>
      <point x="393" y="712" type="curve" smooth="yes"/>
      <point x="203" y="712"/>
      <point x="55" y="564"/>
      <point x="55" y="350" type="curve" smooth="yes"/>
      <point x="55" y="145"/>
      <point x="193" y="-12.0"/>
      <point x="397" y="-12" type="curve" smooth="yes"/>
      <point x="403" y="-12"/>
      <point x="412" y="-12"/>
      <point x="420" y="-11" type="curve"/>
      <point x="415" y="4" type="line"/>
      <point x="355" y="-35"/>
      <point x="324" y="-68"/>
      <point x="324" y="-115" type="curve" smooth="yes"/>
      <point x="324" y="-162"/>
      <point x="357" y="-196"/>
    </contour>
    <contour>
      <point x="393" y="69" type="curve" smooth="yes"/>
      <point x="250" y="69"/>
      <point x="147" y="181"/>
      <point x="147" y="350" type="curve" smooth="yes"/>
      <point x="147" y="519"/>
      <point x="250" y="631"/>
      <point x="393" y="631" type="curve" smooth="yes"/>
      <point x="536" y="631"/>
      <point x="639" y="519"/>
      <point x="639" y="350" type="curve" smooth="yes"/>
      <point x="639" y="181"/>
      <point x="536" y="69"/>
    </contour>
  </outline>
</glyph>
<glyph name="bhook" format="2">
  <advance width="584"/>
  <unicode hex="0253"/>
  <outline>
    <contour>
      <point x="306" y="58" type="curve" smooth="yes"/>
      <point x="214" y="58"/>
      <point x="163" y="130"/>
      <point x="163" y="245" type="curve" smooth="yes"/>
      <point x="163" y="360"/>
      <point x="214" y="432"/>
      <point x="306" y="432" type="curve" smooth="yes"/>
      <point x="398" y="432"/>
      <point x="449" y="360"/>
      <point x="449" y="245" type="curve" smooth="yes"/>
      <point x="449" y="130"/>
      <point x="398" y="58"/>
    </contour>
    <contour>
      <point x="81" y="583" type="curve" smooth="yes"/>
      <point x="81" y="0" type="line"/>
      <point x="169" y="0" type="line"/>
      <point x="169" y="117" type="line"/>
      <point x="140" y="117" type="line"/>
      <point x="179" y="32"/>
      <point x="248" y="-12"/>
      <point x="335" y="-12" type="curve" smooth="yes"/>
      <point x="445" y="-12"/>
      <point x="538" y="76"/>
      <point x="538" y="244" type="curve" smooth="yes"/>
      <point x="538" y="411"/>
      <point x="445" y="502"/>
      <point x="335" y="502" type="curve" smooth="yes"/>
      <point x="248" y="502"/>
      <point x="179" y="457"/>
      <point x="140" y="371" type="curve"/>
      <point x="169" y="371" type="line"/>
      <point x="169" y="576" type="line" smooth="yes"/>
      <point x="169.0" y="616.0"/>
      <point x="192" y="629"/>
      <point x="220" y="629" type="curve" smooth="yes"/>
      <point x="239.0" y="629.0"/>
      <point x="259" y="623"/>
      <point x="274" y="616" type="curve"/>
      <point x="277" y="689" type="line"/>
      <point x="260" y="698"/>
      <point x="234" y="706"/>
      <point x="204" y="706" type="curve" smooth="yes"/>
      <point x="130" y="706"/>
      <point x="81.0" y="654.0"/>
    </contour>
  </outline>
</glyph>
<glyph name="istroke" format="2">
  <advance width="250"/>
  <unicode hex="0268"/>
  <outline>
    <contour>
      <point x="244" y="264" type="line"/>
      <point x="244" y="332" type="line"/>
      <point x="6" y="332" type="line"/>
      <point x="6" y="264" type="line"/>
    </contour>
    <component base="i"/>
  </outline>
</glyph>
<glyph name="ringhalfrightmod" format="2">
  <advance width="238"/>
  <unicode hex="02BE"/>
  <outline>
    <contour>
      <point x="49" y="446" type="line" smooth="yes"/>
      <point x="102" y="446"/>
      <point x="137" y="484"/>
      <point x="137" y="537" type="curve" smooth="yes"/>
      <point x="137" y="590"/>
      <point x="102" y="629"/>
      <point x="49" y="629" type="curve" smooth="yes"/>
      <point x="35" y="629" type="line"/>
      <point x="35" y="700" type="line"/>
      <point x="49" y="700" type="line" smooth="yes"/>
      <point x="141" y="700"/>
      <point x="213" y="632"/>
      <point x="213" y="537" type="curve" smooth="yes"/>
      <point x="213" y="442"/>
      <point x="141" y="375"/>
      <point x="49" y="375" type="curve" smooth="yes"/>
      <point x="35" y="375" type="line"/>
      <point x="35" y="446" type="line"/>
    </contour>
  </outline>
</glyph>
<glyph name="gravecmb" format="2">
  <advance width="600"/>
  <unicode hex="0300"/>
  <outline>
    <contour>
      <point x="302" y="700" type="line"/>
      <point x="364" y="570" type="line"/>
      <point x="298" y="570" type="line"/>
      <point x="219" y="700" type="line"/>
    </contour>
  </outline>
</glyph>
<glyph name="brevecmb" format="2">
  <advance width="600"/>
  <unicode hex="0306"/>
  <outline>
    <contour>
      <point x="165" y="700" type="line"/>
      <point x="165" y="626"/>
      <point x="214" y="565"/>
      <point x="300" y="565" type="curve" smooth="yes"/>
      <point x="386" y="565"/>
      <point x="435" y="626"/>
      <point x="435" y="700" type="curve"/>
      <point x="369" y="700" type="line"/>
      <point x="369" y="658"/>
      <point x="345" y="627"/>
      <point x="300" y="627" type="curve" smooth="yes"/>
      <point x="255" y="627"/>
      <point x="231" y="658"/>
      <point x="231" y="700" type="curve"/>
    </contour>
  </outline>
</glyph>
<glyph name="caroncmb" format="2">
  <advance width="600"/>
  <unicode hex="030C"/>
  <outline>
    <contour>
      <point x="256" y="570" type="line"/>
      <point x="344" y="570" type="line"/>
      <point x="446" y="700" type="line"/>
      <point x="376" y="700" type="line"/>
      <point x="274" y="599" type="line"/>
      <point x="326" y="599" type="line"/>
      <point x="224" y="700" type="line"/>
      <point x="154" y="700" type="line"/>
    </contour>
  </outline>
</glyph>
<glyph name="horncmb" format="2">
  <advance width="600"/>
  <unicode hex="031B"/>
  <outline>
    <contour>
      <point x="305" y="576" type="line"/>
      <point x="310" y="559"/>
      <point x="312" y="542"/>
      <point x="312" y="528" type="curve" smooth="yes"/>
      <point x="312" y="496"/>
      <point x="297" y="490"/>
      <point x="265" y="490" type="curve" smooth="yes"/>
      <point x="204" y="490" type="line"/>
      <point x="204" y="434" type="line"/>
      <point x="272" y="434" type="line" smooth="yes"/>
      <point x="351" y="434"/>
      <point x="378" y="460"/>
      <point x="378" y="518" type="curve" smooth="yes"/>
      <point x="378" y="538"/>
      <point x="376" y="559"/>
      <point x="370" y="576" type="curve"/>
    </contour>
  </outline>
</glyph>
<glyph name="commaaccentbelowcmb" format="2">
  <advance width="600"/>
  <unicode hex="0326"/>
  <outline>
    <contour>
      <point x="252" y="-77" type="line"/>
      <point x="252" y="-180" type="line"/>
      <point x="298" y="-180" type="line"/>
      <point x="298" y="-186" type="line" smooth="yes"/>
      <point x="298.0" y="-216.0"/>
      <point x="278" y="-236"/>
      <point x="240" y="-236" type="curve"/>
      <point x="240" y="-281" type="line"/>
      <point x="328" y="-281"/>
      <point x="348.0" y="-219.0"/>
      <point x="348" y="-186" type="curve" smooth="yes"/>
      <point x="348" y="-77" type="line"/>
    </contour>
  </outline>
</glyph>
<glyph name="lmacrondot" format="2">
  <advance width="250"/>
  <unicode hex="1E39"/>
  <outline>
    <contour>
      <point x="11" y="776" type="line"/>
      <point x="239" y="776" type="line"/>
      <point x="239" y="843" type="line"/>
      <point x="11" y="843" type="line"/>
    </contour>
    <component base="l"/>
    <component base="dotbelowcmb" xOffset="-175"/>
  </outline>
</glyph>
<glyph name="cedi" format="2">
  <advance width="577"/>
  <unicode hex="20B5"/>
  <outline>
    <contour>
      <point x="526" y="486" type="line"/>
      <point x="500" y="620"/>
      <point x="429" y="712"/>
      <point x="307" y="712" type="curve" smooth="yes"/>
      <point x="153" y="712"/>
      <point x="55" y="569"/>
      <point x="55" y="350" type="curve" smooth="yes"/>
      <point x="55" y="131"/>
      <point x="153" y="-12"/>
      <point x="307" y="-12" type="curve" smooth="yes"/>
      <point x="429" y="-12"/>
      <point x="503" y="81"/>
      <point x="527" y="216" type="curve"/>
      <point x="447" y="232" type="line"/>
      <point x="432" y="142"/>
      <point x="392" y="64"/>
      <point x="307" y="64" type="curve" smooth="yes"/>
      <point x="201" y="64"/>
      <point x="145" y="174"/>
      <point x="145" y="350" type="curve" smooth="yes"/>
      <point x="145" y="526"/>
      <point x="201" y="636"/>
      <point x="307" y="636" type="curve" smooth="yes"/>
      <point x="392" y="636"/>
      <point x="431" y="561"/>
      <point x="446" y="470" type="curve"/>
    </contour>
    <contour>
      <point x="267" y="-112" type="line"/>
      <point x="335" y="-112" type="line"/>
      <point x="335" y="797" type="line"/>
      <point x="267" y="797" type="line"/>
    </contour>
  </outline>
</glyph>
<glyph name="turkishlira" format="2">
  <advance width="614"/>
  <unicode hex="20BA"/>
  <outline>
    <contour>
      <point x="45" y="286" type="line"/>
      <point x="391" y="468" type="line"/>
      <point x="391" y="546" type="line"/>
      <point x="45" y="364" type="line"/>
    </contour>
    <contour>
      <point x="45" y="138" type="line"/>
      <point x="391" y="320" type="line"/>
      <point x="391" y="398" type="line"/>
      <point x="45" y="216" type="line"/>
    </contour>
    <contour>
      <point x="118" y="700" type="line"/>
      <point x="118" y="0" type="line"/>
      <point x="204" y="0" type="line"/>
      <point x="204" y="700" type="line"/>
    </contour>
    <contour>
      <point x="153" y="0" type="line"/>
      <point x="312" y="0" type="line" smooth="yes"/>
      <point x="472.0" y="0.0"/>
      <point x="548" y="90.0"/>
      <point x="569" y="233" type="curve"/>
      <point x="491" y="251" type="line"/>
      <point x="473" y="126.0"/>
      <point x="411" y="77"/>
      <point x="309" y="77" type="curve" smooth="yes"/>
      <point x="153" y="77" type="line"/>
    </contour>
  </outline>
</glyph>
<glyph name="bitcoin" format="2">
  <advance width="614"/>
  <unicode hex="20BF"/>
  <outline>
    <contour>
      <point x="90" y="700" type="line"/>
      <point x="90" y="0" type="line"/>
      <point x="178" y="0" type="line"/>
      <point x="178" y="700" type="line"/>
    </contour>
    <contour>
      <point x="347" y="0" type="line" smooth="yes"/>
      <point x="478.0" y="0.0"/>
      <point x="559" y="87"/>
      <point x="559" y="199" type="curve" smooth="yes"/>
      <point x="559" y="294"/>
      <point x="497" y="350"/>
      <point x="435" y="374" type="curve"/>
      <point x="435" y="356" type="line"/>
      <point x="492" y="374"/>
      <point x="544" y="430"/>
      <point x="544" y="513" type="curve" smooth="yes"/>
      <point x="544" y="623"/>
      <point x="467.0" y="700.0"/>
      <point x="347" y="700" type="curve" smooth="yes"/>
      <point x="125" y="700" type="line"/>
      <point x="125" y="621" type="line"/>
      <point x="340" y="621" type="line" smooth="yes"/>
      <point x="413.0" y="621.0"/>
      <point x="459" y="576"/>
      <point x="459" y="510" type="curve" smooth="yes"/>
      <point x="459" y="444"/>
      <point x="417.0" y="398.0"/>
      <point x="344" y="398" type="curve" smooth="yes"/>
      <point x="124" y="398" type="line"/>
      <point x="124" y="320" type="line"/>
      <point x="341" y="320" type="line" smooth="yes"/>
      <point x="412.0" y="320.0"/>
      <point x="469" y="277"/>
      <point x="469" y="200" type="curve" smooth="yes"/>
      <point x="469" y="125"/>
      <point x="416.0" y="79.0"/>
      <point x="341" y="79" type="curve" smooth="yes"/>
      <point x="125" y="79" type="line"/>
      <point x="125" y="0" type="line"/>
    </contour>
    <contour>
      <point x="212" y="668" type="line"/>
      <point x="277" y="668" type="line"/>
      <point x="277" y="797" type="line"/>
      <point x="212" y="797" type="line"/>
    </contour>
    <contour>
      <point x="319" y="668" type="line"/>
      <point x="384" y="668" type="line"/>
      <point x="384" y="797" type="line"/>
      <point x="319" y="797" type="line"/>
    </contour>
    <contour>
      <point x="212" y="-112" type="line"/>
      <point x="277" y="-112" type="line"/>
      <point x="277" y="17" type="line"/>
      <point x="212" y="17" type="line"/>
    </contour>
    <contour>
      <point x="319" y="-112" type="line"/>
      <point x="384" y="-112" type="line"/>
      <point x="384" y="17" type="line"/>
      <point x="319" y="17" type="line"/>
    </contour>
  </outline>
</glyph>
<glyph name="onetenth" format="2">
  <advance width="1025"/>
  <unicode hex="2152"/>
  <outline>
    <contour>
      <point x="568" y="392" type="line"/>
      <point x="568" y="324"/>
      <point x="549" y="303"/>
      <point x="460" y="303" type="curve"/>
      <point x="460" y="249" type="line"/>
      <point x="604" y="249" type="line"/>
      <point x="559" y="293" type="line"/>
      <point x="559" y="0" type="line"/>
      <point x="634" y="0" type="line"/>
      <point x="634" y="392" type="line"/>
    </contour>
    <contour>
      <point x="836" y="397" type="curve" smooth="yes"/>
      <point x="746" y="397"/>
      <point x="690" y="319"/>
      <point x="690" y="195" type="curve" smooth="yes"/>
      <point x="690" y="71"/>
      <point x="746" y="-7"/>
      <point x="836" y="-7" type="curve" smooth="yes"/>
      <point x="926" y="-7"/>
      <point x="982" y="71"/>
      <point x="982" y="195" type="curve" smooth="yes"/>
      <point x="982" y="319"/>
      <point x="926" y="397"/>
    </contour>
    <contour>
      <point x="836" y="56" type="curve" smooth="yes"/>
      <point x="788" y="56"/>
      <point x="765" y="111"/>
      <point x="765" y="195" type="curve" smooth="yes"/>
      <point x="765" y="279"/>
      <point x="788" y="334"/>
      <point x="836" y="334" type="curve" smooth="yes"/>
      <point x="884" y="334"/>
      <point x="907" y="279"/>
      <point x="907" y="195" type="curve" smooth="yes"/>
      <point x="907" y="111"/>
      <point x="884" y="56"/>
    </contour>
    <contour>
      <point x="135" y="700" type="line"/>
      <point x="135" y="632"/>
      <point x="116" y="611"/>
      <point x="27" y="611" type="curve"/>
      <point x="27" y="557" type="line"/>
      <point x="171" y="557" type="line"/>
      <point x="126" y="601" type="line"/>
      <point x="126" y="308" type="line"/>
      <point x="201" y="308" type="line"/>
      <point x="201" y="700" type="line"/>
    </contour>
    <contour>
      <point x="57" y="0" type="line"/>
      <point x="139" y="0" type="line"/>
      <point x="667" y="700" type="line"/>
      <point x="585" y="700" type="line"/>
    </contour>
  </outline>
</glyph>
<glyph name="notequal" format="2">
  <advance width="576"/>
  <unicode hex="2260"/>
  <outline>
    <contour>
      <point x="98" y="92" type="line"/>
      <point x="184" y="92" type="line"/>
      <point x="478" y="588" type="line"/>
      <point x="392" y="588" type="line"/>
    </contour>
    <component base="equal"/>
  </outline>
</glyph>
<glyph name="lessequal" format="2">
  <advance width="576"/>
  <unicode hex="2264"/>
  <outline>
    <contour>
      <point x="516" y="0" type="line"/>
      <point x="516" y="76" type="line"/>
      <point x="60" y="76" type="line"/>
      <point x="60" y="0" type="line"/>
    </contour>
    <contour>
      <point x="60" y="428" type="line"/>
      <point x="60" y="342" type="line"/>
      <point x="516" y="151" type="line"/>
      <point x="516" y="236" type="line"/>
      <point x="122" y="400" type="line"/>
      <point x="122" y="371" type="line"/>
      <point x="516" y="535" type="line"/>
      <point x="516" y="619" type="line"/>
    </contour>
  </outline>
</glyph>
<glyph name="onesanscircled" format="2">
  <advance width="828"/>
  <unicode hex="2780"/>
  <outline>
    <contour>
      <point x="397" y="546" type="line"/>
      <point x="397" y="478"/>
      <point x="378" y="457"/>
      <point x="289" y="457" type="curve"/>
      <point x="289" y="403" type="line"/>
      <point x="388" y="403" type="line"/>
      <point x="388" y="154" type="line"/>
      <point x="463" y="154" type="line"/>
      <point x="463" y="546" type="line"/>
    </contour>
    <component base="circlewhite"/>
  </outline>
</glyph>
<glyph name="twosanscircled" format="2">
  <advance width="828"/>
  <unicode hex="2781"/>
  <outline>
    <contour>
      <point x="551" y="154" type="line"/>
      <point x="551" y="218" type="line"/>
      <point x="381" y="218" type="line"/>
      <point x="486" y="302"/>
      <point x="548" y="355"/>
      <point x="548" y="426" type="curve" smooth="yes"/>
      <point x="548" y="486"/>
      <point x="510" y="552"/>
      <point x="413" y="552" type="curve" smooth="yes"/>
      <point x="321" y="552"/>
      <point x="277" y="491"/>
      <point x="277" y="433" type="curve" smooth="yes"/>
      <point x="277" y="414"/>
      <point x="282" y="398"/>
      <point x="290" y="384" type="curve"/>
      <point x="360" y="392" type="line"/>
      <point x="352" y="405"/>
      <point x="349" y="417"/>
      <point x="349" y="428" type="curve" smooth="yes"/>
      <point x="349" y="460"/>
      <point x="372" y="489"/>
      <point x="411" y="489" type="curve" smooth="yes"/>
      <point x="449" y="489"/>
      <point x="474" y="463"/>
      <point x="474" y="424" type="curve" smooth="yes"/>
      <point x="474" y="366"/>
      <point x="416" y="332"/>
      <point x="280" y="215" type="curve"/>
      <point x="280" y="154" type="line"/>
    </contour>
    <component base="circlewhite"/>
  </outline>
</glyph>
<glyph name="threesanscircled" format="2">
  <advance width="828"/>
  <unicode hex="2782"/>
  <outline>
    <contour>
      <point x="272" y="278" type="line"/>
      <point x="266" y="191"/>
      <point x="331" y="148"/>
      <point x="414" y="148" type="curve" smooth="yes"/>
      <point x="499" y="148"/>
      <point x="557" y="196"/>
      <point x="557" y="268" type="curve" smooth="yes"/>
      <point x="557" y="316"/>
      <point x="531" y="348"/>
      <point x="487" y="359" type="curve"/>
      <point x="518" y="369"/>
      <point x="547" y="393"/>
      <point x="547" y="440" type="curve" smooth="yes"/>
      <point x="547" y="500"/>
      <point x="498" y="552"/>
      <point x="415" y="552" type="curve" smooth="yes"/>
      <point x="334" y="552"/>
      <point x="269" y="505"/>
      <point x="276" y="424" type="curve"/>
      <point x="350" y="429" type="line"/>
      <point x="346" y="466"/>
      <point x="375" y="492"/>
      <point x="414" y="492" type="curve" smooth="yes"/>
      <point x="455" y="492"/>
      <point x="473" y="463"/>
      <point x="473" y="437" type="curve" smooth="yes"/>
      <point x="473" y="407"/>
      <point x="450" y="386"/>
      <point x="413" y="386" type="curve" smooth="yes"/>
      <point x="383" y="386" type="line"/>
      <point x="383" y="326" type="line"/>
      <point x="413" y="326" type="line" smooth="yes"/>
      <point x="460" y="326"/>
      <point x="483" y="301"/>
      <point x="483" y="269" type="curve" smooth="yes"/>
      <point x="483" y="233"/>
      <point x="457" y="208"/>
      <point x="414" y="208" type="curve" smooth="yes"/>
      <point x="367" y="208"/>
      <point x="341" y="239"/>
      <point x="346" y="273" type="curve"/>
    </contour>
    <component base="circlewhite"/>
  </outline>
</glyph>
<glyph name="foursanscircled" format="2">
  <advance width="828"/>
  <unicode hex="2783"/>
  <outline>
    <contour>
      <point x="494" y="546" type="line"/>
      <point x="416" y="546" type="line"/>
      <point x="239" y="308" type="line"/>
      <point x="239" y="245" type="line"/>
      <point x="421" y="245" type="line"/>
      <point x="421" y="154" type="line"/>
      <point x="494" y="154" type="line"/>
      <point x="494" y="245" type="line"/>
      <point x="561" y="245" type="line"/>
      <point x="561" y="306" type="line"/>
      <point x="494" y="306" type="line"/>
    </contour>
    <contour>
      <point x="313" y="306" type="line"/>
      <point x="421" y="452" type="line"/>
      <point x="421" y="306" type="line"/>
    </contour>
    <component base="circlewhite"/>
  </outline>
</glyph>
<glyph name="fivesanscircled" format="2">
  <advance width="828"/>
  <unicode hex="2784"/>
  <outline>
    <contour>
      <point x="266" y="276" type="line"/>
      <point x="269" y="196"/>
      <point x="324" y="148"/>
      <point x="407" y="148" type="curve" smooth="yes"/>
      <point x="492" y="148"/>
      <point x="545" y="202"/>
      <point x="545" y="286" type="curve" smooth="yes"/>
      <point x="545" y="362"/>
      <point x="502" y="420"/>
      <point x="428" y="420" type="curve" smooth="yes"/>
      <point x="397" y="420"/>
      <point x="372" y="409"/>
      <point x="354" y="393" type="curve"/>
      <point x="362" y="484" type="line"/>
      <point x="533" y="484" type="line"/>
      <point x="533" y="546" type="line"/>
      <point x="301" y="546" type="line"/>
      <point x="282" y="322" type="line"/>
      <point x="349" y="317" type="line"/>
      <point x="360" y="345"/>
      <point x="381" y="363"/>
      <point x="410" y="363" type="curve" smooth="yes"/>
      <point x="447" y="363"/>
      <point x="471" y="333"/>
      <point x="471" y="286" type="curve" smooth="yes"/>
      <point x="471" y="236"/>
      <point x="444" y="207"/>
      <point x="407" y="207" type="curve" smooth="yes"/>
      <point x="371" y="207"/>
      <point x="348" y="233"/>
      <point x="347" y="267" type="curve"/>
    </contour>
    <component base="circlewhite"/>
  </outline>
</glyph>
<glyph name="eightsanscircled" format="2">
  <advance width="828"/>
  <unicode hex="2787"/>
  <outline>
    <contour>
      <point x="270" y="268" type="curve" smooth="yes"/>
      <point x="270" y="199"/>
      <point x="329" y="148"/>
      <point x="414" y="148" type="curve" smooth="yes"/>
      <point x="499" y="148"/>
      <point x="558" y="199"/>
      <point x="558" y="268" type="curve" smooth="yes"/>
      <point x="558" y="318"/>
      <point x="528" y="349"/>
      <point x="487" y="363" type="curve"/>
      <point x="521" y="375"/>
      <point x="547" y="402"/>
      <point x="547" y="445" type="curve" smooth="yes"/>
      <point x="547" y="506"/>
      <point x="495" y="552"/>
      <point x="414" y="552" type="curve" smooth="yes"/>
      <point x="333" y="552"/>
      <point x="281" y="506"/>
      <point x="281" y="445" type="curve" smooth="yes"/>
      <point x="281" y="402"/>
      <point x="307" y="375"/>
      <point x="341" y="363" type="curve"/>
      <point x="300" y="349"/>
      <point x="270" y="318"/>
    </contour>
    <contour>
      <point x="485" y="271" type="curve" smooth="yes"/>
      <point x="485" y="232"/>
      <point x="456" y="206"/>
      <point x="414" y="206" type="curve" smooth="yes"/>
      <point x="372" y="206"/>
      <point x="343" y="232"/>
      <point x="343" y="271" type="curve" smooth="yes"/>
      <point x="343" y="310"/>
      <point x="372" y="334"/>
      <point x="414" y="334" type="curve" smooth="yes"/>
      <point x="456" y="334"/>
      <point x="485" y="310"/>
    </contour>
    <contour>
      <point x="476" y="442" type="curve" smooth="yes"/>
      <point x="476" y="411"/>
      <point x="450" y="390"/>
      <point x="414" y="390" type="curve" smooth="yes"/>
      <point x="378" y="390"/>
      <point x="352" y="411"/>
      <point x="352" y="442" type="curve" smooth="yes"/>
      <point x="352" y="473"/>
      <point x="378" y="494"/>
      <point x="414" y="494" type="curve" smooth="yes"/>
      <point x="450" y="494"/>
      <point x="476" y="473"/>
    </contour>
    <component base="circlewhite"/>
  </outline>
</glyph>
<glyph name="sixsansnegativecircled" format="2">
  <advance width="828"/>
  <unicode hex="278F"/>
  <outline>
    <contour>
      <point x="410" y="148" type="curve" smooth="yes"/>
      <point x="362" y="148"/>
      <point x="322" y="167"/>
      <point x="297" y="204" type="curve" smooth="yes"/>
      <point x="276" y="237"/>
      <point x="267" y="276"/>
      <point x="267" y="339" type="curve" smooth="yes"/>
      <point x="267" y="468"/>
      <point x="331" y="552"/>
      <point x="424" y="552" type="curve" smooth="yes"/>
      <point x="501" y="552"/>
      <point x="540" y="502"/>
      <point x="543" y="437" type="curve"/>
      <point x="470" y="445" type="line"/>
      <point x="470" y="473"/>
      <point x="451" y="491"/>
      <point x="423" y="491" type="curve" smooth="yes"/>
      <point x="384" y="491"/>
      <point x="349" y="451"/>
      <point x="344" y="377" type="curve"/>
      <point x="364" y="401"/>
      <point x="395" y="415"/>
      <point x="429" y="415" type="curve" smooth="yes"/>
      <point x="495" y="415"/>
      <point x="549" y="365"/>
      <point x="549" y="285" type="curve" smooth="yes"/>
      <point x="549" y="211"/>
      <point x="499" y="148"/>
    </contour>
    <contour>
      <point x="410" y="207" type="curve" smooth="yes"/>
      <point x="451" y="207"/>
      <point x="475" y="241"/>
      <point x="475" y="282" type="curve" smooth="yes"/>
      <point x="475" y="323"/>
      <point x="451" y="357"/>
      <point x="410" y="357" type="curve" smooth="yes"/>
      <point x="369" y="357"/>
      <point x="345" y="323"/>
      <point x="345" y="282" type="curve" smooth="yes"/>
      <point x="345" y="241"/>
      <point x="369" y="207"/>
    </contour>
    <component base="circleblack"/>
  </outline>
</glyph>
<glyph name="R.alt1" format="2">
  <advance width="681"/>
  <outline>
    <contour>
      <point x="97" y="700" type="line"/>
      <point x="97" y="0" type="line"/>
      <point x="188" y="0" type="line"/>
      <point x="188" y="700" type="line"/>
    </contour>
    <contour>
      <point x="407" y="373" type="curve" smooth="yes"/>
      <point x="140" y="373" type="line"/>
      <point x="140" y="293" type="line"/>
      <point x="456" y="293" type="line" smooth="yes"/>
      <point x="487" y="293"/>
      <point x="511" y="260"/>
      <point x="513" y="179" type="curve" smooth="yes"/>
      <point x="515" y="84"/>
      <point x="509" y="34"/>
      <point x="539" y="0" type="curve"/>
      <point x="631" y="0" type="line"/>
      <point x="631" y="11" type="line"/>
      <point x="601" y="35"/>
      <point x="607" y="130"/>
      <point x="601" y="210" type="curve" smooth="yes"/>
      <point x="596" y="276"/>
      <point x="555" y="327"/>
      <point x="483" y="341" type="curve"/>
      <point x="483" y="322" type="line"/>
      <point x="574" y="341"/>
      <point x="626" y="405"/>
      <point x="626" y="496" type="curve" smooth="yes"/>
      <point x="626" y="614"/>
      <point x="540" y="700"/>
      <point x="410" y="700" type="curve" smooth="yes"/>
      <point x="145" y="700" type="line"/>
      <point x="145" y="619" type="line"/>
      <point x="407" y="619" type="line" smooth="yes"/>
      <point x="485" y="619"/>
      <point x="534" y="577"/>
      <point x="534" y="495" type="curve" smooth="yes"/>
      <point x="534" y="415"/>
      <point x="485" y="373"/>
    </contour>
  </outline>
</glyph>
<glyph name=".notdef" format="2">
  <advance width="664"/>
  <outline>
    <contour>
      <point x="97" y="0" type="line"/>
      <point x="147" y="0" type="line"/>
      <point x="147" y="700" type="line"/>
      <point x="97" y="700" type="line"/>
    </contour>
    <contour>
      <point x="114" y="50" type="line"/>
      <point x="114" y="0" type="line"/>
      <point x="553" y="0" type="line"/>
      <point x="553" y="50" type="line"/>
    </contour>
    <contour>
      <point x="517" y="700" type="line"/>
      <point x="517" y="0" type="line"/>
      <point x="567" y="0" type="line"/>
      <point x="567" y="700" type="line"/>
    </contour>
    <contour>
      <point x="114" y="650" type="line"/>
      <point x="553" y="650" type="line"/>
      <point x="553" y="700" type="line"/>
      <point x="114" y="700" type="line"/>
    </contour>
    <contour>
      <point x="421" y="473" type="line"/>
      <point x="209" y="261" type="line"/>
      <point x="243" y="227" type="line"/>
      <point x="455" y="439" type="line"/>
    </contour>
    <contour>
      <point x="455" y="261" type="line"/>
      <point x="243" y="473" type="line"/>
      <point x="209" y="439" type="line"/>
      <point x="421" y="227" type="line"/>
    </contour>
  </outline>
</glyph>
<glyph name="acutecmb.uc" format="2">
  <advance width="600"/>
  <outline>
    <contour>
      <point x="307" y="892" type="line"/>
      <point x="398" y="892" type="line"/>
      <point x="300" y="771" type="line"/>
      <point x="232" y="771" type="line"/>
    </contour>
  </outline>
</glyph>
<glyph name="brokenbar.uc" format="2">
  <advance width="243"/>
  <outline>
    <contour>
      <point x="80" y="745" type="line"/>
      <point x="80" y="392" type="line"/>
      <point x="163" y="392" type="line"/>
      <point x="163" y="745" type="line"/>
    </contour>
    <contour>
      <point x="80" y="270" type="line"/>
      <point x="80" y="-83" type="line"/>
      <point x="163" y="-83" type="line"/>
      <point x="163" y="270" type="line"/>
    </contour>
  </outline>
</glyph>
<glyph name="bullet.large" format="2">
  <advance width="638"/>
  <outline>
    <contour>
      <point x="319" y="573" type="curve" smooth="yes"/>
      <point x="175" y="573"/>
      <point x="55" y="453"/>
      <point x="55" y="309" type="curve" smooth="yes"/>
      <point x="55" y="165"/>
      <point x="175" y="45"/>
      <point x="319" y="45" type="curve" smooth="yes"/>
      <point x="463" y="45"/>
      <point x="583" y="165"/>
      <point x="583" y="309" type="curve" smooth="yes"/>
      <point x="583" y="453"/>
      <point x="463" y="573"/>
    </contour>
  </outline>
</glyph>
<glyph name="caroncmb.alt" format="2">
  <advance width="600"/>
  <outline>
    <contour>
      <point x="281" y="700" type="line"/>
      <point x="273" y="550" type="line"/>
      <point x="337" y="550" type="line"/>
      <point x="363" y="700" type="line"/>
    </contour>
  </outline>
</glyph>
<glyph name="caroncmb.ucalt" format="2">
  <advance width="600"/>
  <outline>
    <contour>
      <point x="281" y="700" type="line"/>
      <point x="274" y="472" type="line"/>
      <point x="339" y="472" type="line"/>
      <point x="370" y="700" type="line"/>
    </contour>
  </outline>
</glyph>
<glyph name="cedi.tab" format="2">
  <advance width="600"/>
  <outline>
    <contour>
      <point x="66" y="350" type="curve" smooth="yes"/>
      <point x="66" y="131"/>
      <point x="164" y="-12"/>
      <point x="318" y="-12" type="curve" smooth="yes"/>
      <point x="440" y="-12"/>
      <point x="514" y="81"/>
      <point x="538" y="216" type="curve"/>
      <point x="458" y="232" type="line"/>
      <point x="443" y="142"/>
      <point x="403" y="64"/>
      <point x="318" y="64" type="curve" smooth="yes"/>
      <point x="212" y="64"/>
      <point x="156" y="174"/>
      <point x="156" y="350" type="curve" smooth="yes"/>
      <point x="156" y="526"/>
      <point x="212" y="636"/>
      <point x="318" y="636" type="curve" smooth="yes"/>
      <point x="403" y="636"/>
      <point x="442" y="561"/>
      <point x="457" y="470" type="curve"/>
      <point x="537" y="486" type="line"/>
      <point x="511" y="620"/>
      <point x="440" y="712"/>
      <point x="318" y="712" type="curve" smooth="yes"/>
      <point x="164" y="712"/>
      <point x="66" y="569"/>
    </contour>
    <contour>
      <point x="278" y="797" type="line"/>
      <point x="278" y="-112" type="line"/>
      <point x="346" y="-112" type="line"/>
      <point x="346" y="797" type="line"/>
    </contour>
  </outline>
</glyph>
<glyph name="colon.tab" format="2">
  <advance width="600"/>
  <outline>
    <contour>
      <point x="237" y="149" type="line"/>
      <point x="237" y="0" type="line"/>
      <point x="363" y="0" type="line"/>
      <point x="363" y="149" type="line"/>
    </contour>
    <contour>
      <point x="237" y="490" type="line"/>
      <point x="237" y="341" type="line"/>
      <point x="363" y="341" type="line"/>
      <point x="363" y="490" type="line"/>
    </contour>
  </outline>
</glyph>
<glyph name="five.den" format="2">
  <advance width="346"/>
  <outline>
    <contour>
      <point x="34" y="122" type="line"/>
      <point x="37" y="42"/>
      <point x="92" y="-6"/>
      <point x="175" y="-6" type="curve" smooth="yes"/>
      <point x="260" y="-6"/>
      <point x="313" y="48"/>
      <point x="313" y="132" type="curve" smooth="yes"/>
      <point x="313" y="208"/>
      <point x="270" y="266"/>
      <point x="196" y="266" type="curve" smooth="yes"/>
      <point x="142" y="266"/>
      <point x="108" y="233"/>
      <point x="95" y="198" type="curve"/>
      <point x="119" y="198" type="line"/>
      <point x="133" y="370" type="line"/>
      <point x="97" y="330" type="line"/>
      <point x="301" y="330" type="line"/>
      <point x="301" y="392" type="line"/>
      <point x="69" y="392" type="line"/>
      <point x="50" y="168" type="line"/>
      <point x="117" y="163" type="line"/>
      <point x="128" y="191"/>
      <point x="149" y="209"/>
      <point x="178" y="209" type="curve" smooth="yes"/>
      <point x="215" y="209"/>
      <point x="239" y="179"/>
      <point x="239" y="132" type="curve" smooth="yes"/>
      <point x="239" y="82"/>
      <point x="212" y="53"/>
      <point x="175" y="53" type="curve" smooth="yes"/>
      <point x="139" y="53"/>
      <point x="116" y="79"/>
      <point x="115" y="113" type="curve"/>
    </contour>
  </outline>
</glyph>
<glyph name="five.num" format="2">
  <advance width="346"/>
  <outline>
    <contour>
      <point x="34" y="430" type="line"/>
      <point x="37" y="350"/>
      <point x="92" y="302"/>
      <point x="175" y="302" type="curve" smooth="yes"/>
      <point x="260" y="302"/>
      <point x="313" y="356"/>
      <point x="313" y="440" type="curve" smooth="yes"/>
      <point x="313" y="516"/>
      <point x="270" y="574"/>
      <point x="196" y="574" type="curve" smooth="yes"/>
      <point x="142" y="574"/>
      <point x="108" y="541"/>
      <point x="95" y="506" type="curve"/>
      <point x="119" y="506" type="line"/>
      <point x="133" y="678" type="line"/>
      <point x="97" y="638" type="line"/>
      <point x="301" y="638" type="line"/>
      <point x="301" y="700" type="line"/>
      <point x="69" y="700" type="line"/>
      <point x="50" y="476" type="line"/>
      <point x="117" y="471" type="line"/>
      <point x="128" y="499"/>
      <point x="149" y="517"/>
      <point x="178" y="517" type="curve" smooth="yes"/>
      <point x="215" y="517"/>
      <point x="239" y="487"/>
      <point x="239" y="440" type="curve" smooth="yes"/>
      <point x="239" y="390"/>
      <point x="212" y="361"/>
      <point x="175" y="361" type="curve" smooth="yes"/>
      <point x="139" y="361"/>
      <point x="116" y="387"/>
      <point x="115" y="421" type="curve"/>
    </contour>
  </outline>
</glyph>
<glyph name="guarani.tab" format="2">
  <advance width="600"/>
  <outline>
    <contour>
      <point x="315" y="712" type="curve" smooth="yes"/>
      <point x="165" y="712"/>
      <point x="66" y="569"/>
      <point x="66" y="350" type="curve" smooth="yes"/>
      <point x="66" y="131"/>
      <point x="159" y="-12"/>
      <point x="309" y="-12" type="curve" smooth="yes"/>
      <point x="397" y="-12"/>
      <point x="457" y="50"/>
      <point x="472" y="144" type="curve"/>
      <point x="453" y="144" type="line"/>
      <point x="453" y="0" type="line"/>
      <point x="526" y="0" type="line"/>
      <point x="526" y="367" type="line"/>
      <point x="379" y="367" type="line"/>
      <point x="379" y="295" type="line"/>
      <point x="497" y="295" type="line"/>
      <point x="454" y="311" type="line"/>
      <point x="454" y="290" type="line" smooth="yes"/>
      <point x="454" y="167"/>
      <point x="405" y="64"/>
      <point x="318" y="64" type="curve" smooth="yes"/>
      <point x="213" y="64"/>
      <point x="157" y="174"/>
      <point x="157" y="350" type="curve" smooth="yes"/>
      <point x="157" y="526"/>
      <point x="213" y="636"/>
      <point x="315" y="636" type="curve" smooth="yes"/>
      <point x="394" y="636"/>
      <point x="433" y="564"/>
      <point x="446" y="483" type="curve"/>
      <point x="525" y="499" type="line"/>
      <point x="503" y="619"/>
      <point x="433" y="712"/>
    </contour>
    <contour>
      <point x="270" y="-112" type="line"/>
      <point x="337" y="-112" type="line"/>
      <point x="337" y="797" type="line"/>
      <point x="270" y="797" type="line"/>
    </contour>
  </outline>
</glyph>
<glyph name="horncmb.uc" format="2">
  <advance width="600"/>
  <outline>
    <contour>
      <point x="298" y="791" type="line"/>
      <point x="303" y="774"/>
      <point x="305" y="755"/>
      <point x="305" y="740" type="curve" smooth="yes"/>
      <point x="305" y="707"/>
      <point x="287" y="700"/>
      <point x="250" y="700" type="curve" smooth="yes"/>
      <point x="164" y="700" type="line"/>
      <point x="164" y="638" type="line"/>
      <point x="260" y="638" type="line" smooth="yes"/>
      <point x="337" y="638"/>
      <point x="375" y="671"/>
      <point x="375" y="730" type="curve" smooth="yes"/>
      <point x="375" y="751"/>
      <point x="372" y="776"/>
      <point x="367" y="791" type="curve"/>
    </contour>
  </outline>
</glyph>
<glyph name="macroncmb.uc" format="2">
  <advance width="600"/>
  <outline>
    <contour>
      <point x="163" y="776" type="line"/>
      <point x="437" y="776" type="line"/>
      <point x="437" y="844" type="line"/>
      <point x="163" y="844" type="line"/>
    </contour>
  </outline>
</glyph>
<glyph name="manat.tab" format="2">
  <advance width="600"/>
  <outline>
    <contour>
      <point x="534" y="0" type="line"/>
      <point x="534" y="427" type="line" smooth="yes"/>
      <point x="534.0" y="561.0"/>
      <point x="453" y="670"/>
      <point x="300" y="670" type="curve" smooth="yes"/>
      <point x="147" y="670"/>
      <point x="66" y="561.0"/>
      <point x="66" y="427" type="curve" smooth="yes"/>
      <point x="66" y="0" type="line"/>
      <point x="150" y="0" type="line"/>
      <point x="150" y="420" type="line" smooth="yes"/>
      <point x="150.0" y="517.0"/>
      <point x="197" y="587"/>
      <point x="300" y="587" type="curve" smooth="yes"/>
      <point x="403" y="587"/>
      <point x="450.0" y="517.0"/>
      <point x="450" y="420" type="curve" smooth="yes"/>
      <point x="450" y="0" type="line"/>
    </contour>
    <contour>
      <point x="260" y="748" type="line"/>
      <point x="260" y="216" type="line"/>
      <point x="340" y="216" type="line"/>
      <point x="340" y="748" type="line"/>
    </contour>
  </outline>
</glyph>
<glyph name="minus.tab" format="2">
  <advance width="600"/>
  <outline>
    <contour>
      <point x="528" y="302" type="line"/>
      <point x="528" y="378" type="line"/>
      <point x="72" y="378" type="line"/>
      <point x="72" y="302" type="line"/>
    </contour>
  </outline>
</glyph>
<glyph name="nine.den" format="2">
  <advance width="365"/>
  <outline>
    <contour>
      <point x="179" y="398" type="curve" smooth="yes"/>
      <point x="89" y="398"/>
      <point x="40" y="336"/>
      <point x="40" y="262" type="curve" smooth="yes"/>
      <point x="40.0" y="182.0"/>
      <point x="97" y="131"/>
      <point x="165" y="131" type="curve" smooth="yes"/>
      <point x="218" y="131"/>
      <point x="262" y="163"/>
      <point x="271" y="222" type="curve"/>
      <point x="248" y="222" type="line"/>
      <point x="248" y="186" type="line" smooth="yes"/>
      <point x="248.0" y="110.0"/>
      <point x="230" y="52"/>
      <point x="175" y="52" type="curve" smooth="yes"/>
      <point x="145.0" y="52.0"/>
      <point x="124" y="70"/>
      <point x="121" y="102" type="curve"/>
      <point x="41" y="114" type="line"/>
      <point x="44" y="43"/>
      <point x="90" y="-6"/>
      <point x="174" y="-6" type="curve" smooth="yes"/>
      <point x="276" y="-6"/>
      <point x="322" y="66"/>
      <point x="322" y="204" type="curve" smooth="yes"/>
      <point x="322" y="268"/>
      <point x="315" y="307"/>
      <point x="294" y="340" type="curve" smooth="yes"/>
      <point x="269" y="378"/>
      <point x="227" y="398"/>
    </contour>
    <contour>
      <point x="179" y="190" type="curve" smooth="yes"/>
      <point x="144" y="190"/>
      <point x="114" y="216"/>
      <point x="114" y="264" type="curve" smooth="yes"/>
      <point x="114" y="312"/>
      <point x="144" y="338"/>
      <point x="179" y="338" type="curve" smooth="yes"/>
      <point x="214" y="338"/>
      <point x="244" y="312"/>
      <point x="244" y="264" type="curve" smooth="yes"/>
      <point x="244" y="216"/>
      <point x="214" y="190"/>
    </contour>
  </outline>
</glyph>
<glyph name="parenright.uc" format="2">
  <advance width="379"/>
  <outline>
    <contour>
      <point x="224" y="331" type="curve" smooth="yes"/>
      <point x="224" y="471"/>
      <point x="146" y="625"/>
      <point x="5" y="745" type="curve"/>
      <point x="109" y="745" type="line"/>
      <point x="240" y="635"/>
      <point x="319" y="471"/>
      <point x="319" y="331" type="curve" smooth="yes"/>
      <point x="319" y="191"/>
      <point x="240" y="27"/>
      <point x="109" y="-83" type="curve"/>
      <point x="5" y="-83" type="line"/>
      <point x="146" y="37"/>
      <point x="224" y="191"/>
    </contour>
  </outline>
</glyph>
<glyph name="seven.sup" format="2">
  <advance width="354"/>
  <outline>
    <contour>
      <point x="42" y="800" type="line"/>
      <point x="42" y="658" type="line"/>
      <point x="113" y="658" type="line"/>
      <point x="113" y="773" type="line"/>
      <point x="89" y="738" type="line"/>
      <point x="302" y="738" type="line"/>
      <point x="282" y="782" type="line"/>
      <point x="200" y="667"/>
      <point x="107" y="541"/>
      <point x="101" y="408" type="curve"/>
      <point x="179" y="408" type="line"/>
      <point x="189" y="538"/>
      <point x="267" y="653"/>
      <point x="337" y="762" type="curve"/>
      <point x="337" y="800" type="line"/>
    </contour>
  </outline>
</glyph>
<glyph name="six.num" format="2">
  <advance width="365"/>
  <outline>
    <contour>
      <point x="186" y="302" type="curve" smooth="yes"/>
      <point x="275" y="302"/>
      <point x="325" y="365"/>
      <point x="325" y="439" type="curve" smooth="yes"/>
      <point x="325" y="519"/>
      <point x="271" y="569"/>
      <point x="205" y="569" type="curve" smooth="yes"/>
      <point x="151.0" y="569.0"/>
      <point x="107" y="535"/>
      <point x="95" y="479" type="curve"/>
      <point x="119" y="479" type="line"/>
      <point x="119" y="513" type="line" smooth="yes"/>
      <point x="119.0" y="598.0"/>
      <point x="157" y="645"/>
      <point x="199" y="645" type="curve" smooth="yes"/>
      <point x="227" y="645"/>
      <point x="246" y="627"/>
      <point x="246" y="599" type="curve"/>
      <point x="319" y="591" type="line"/>
      <point x="316" y="656"/>
      <point x="277" y="706"/>
      <point x="200" y="706" type="curve" smooth="yes"/>
      <point x="107" y="706"/>
      <point x="43" y="622"/>
      <point x="43" y="493" type="curve" smooth="yes"/>
      <point x="43" y="430"/>
      <point x="52" y="391"/>
      <point x="73" y="358" type="curve" smooth="yes"/>
      <point x="98" y="321"/>
      <point x="138" y="302"/>
    </contour>
    <contour>
      <point x="186" y="361" type="curve" smooth="yes"/>
      <point x="145" y="361"/>
      <point x="121" y="395"/>
      <point x="121" y="436" type="curve" smooth="yes"/>
      <point x="121" y="477"/>
      <point x="145" y="511"/>
      <point x="186" y="511" type="curve" smooth="yes"/>
      <point x="227" y="511"/>
      <point x="251" y="477"/>
      <point x="251" y="436" type="curve" smooth="yes"/>
      <point x="251" y="395"/>
      <point x="227" y="361"/>
    </contour>
  </outline>
</glyph>
<glyph name="six.sup" format="2">
  <advance width="365"/>
  <outline>
    <contour>
      <point x="186" y="402" type="curve" smooth="yes"/>
      <point x="275" y="402"/>
      <point x="325" y="465"/>
      <point x="325" y="539" type="curve" smooth="yes"/>
      <point x="325" y="619"/>
      <point x="271" y="669"/>
      <point x="205" y="669" type="curve" smooth="yes"/>
      <point x="151.0" y="669.0"/>
      <point x="107" y="635"/>
      <point x="95" y="579" type="curve"/>
      <point x="119" y="579" type="line"/>
      <point x="119" y="613" type="line" smooth="yes"/>
      <point x="119.0" y="698.0"/>
      <point x="157" y="745"/>
      <point x="199" y="745" type="curve" smooth="yes"/>
      <point x="227" y="745"/>
      <point x="246" y="727"/>
      <point x="246" y="699" type="curve"/>
      <point x="319" y="691" type="line"/>
      <point x="316" y="756"/>
      <point x="277" y="806"/>
      <point x="200" y="806" type="curve" smooth="yes"/>
      <point x="107" y="806"/>
      <point x="43" y="722"/>
      <point x="43" y="593" type="curve" smooth="yes"/>
      <point x="43" y="530"/>
      <point x="52" y="491"/>
      <point x="73" y="458" type="curve" smooth="yes"/>
      <point x="98" y="421"/>
      <point x="138" y="402"/>
    </contour>
    <contour>
      <point x="186" y="461" type="curve" smooth="yes"/>
      <point x="145" y="461"/>
      <point x="121" y="495"/>
      <point x="121" y="536" type="curve" smooth="yes"/>
      <point x="121" y="577"/>
      <point x="145" y="611"/>
      <point x="186" y="611" type="curve" smooth="yes"/>
      <point x="227" y="611"/>
      <point x="251" y="577"/>
      <point x="251" y="536" type="curve" smooth="yes"/>
      <point x="251" y="495"/>
      <point x="227" y="461"/>
    </contour>
  </outline>
</glyph>
<glyph name="three.den" format="2">
  <advance width="358"/>
  <outline>
    <contour>
      <point x="35" y="124" type="line"/>
      <point x="29" y="37"/>
      <point x="94" y="-6"/>
      <point x="177" y="-6" type="curve" smooth="yes"/>
      <point x="262.0" y="-6.0"/>
      <point x="320" y="42"/>
      <point x="320" y="114" type="curve" smooth="yes"/>
      <point x="320.0" y="165.0"/>
      <point x="290" y="198"/>
      <point x="240" y="207" type="curve"/>
      <point x="240" y="202" type="line"/>
      <point x="275" y="211"/>
      <point x="310" y="234"/>
      <point x="310" y="286" type="curve" smooth="yes"/>
      <point x="310" y="346"/>
      <point x="261" y="398"/>
      <point x="178.16429463984355" y="398.0" type="curve" smooth="yes"/>
      <point x="97" y="398"/>
      <point x="32" y="351"/>
      <point x="39" y="270" type="curve"/>
      <point x="113.37514102893267" y="275.0" type="line"/>
      <point x="109" y="312"/>
      <point x="138" y="338"/>
      <point x="177.16429463984355" y="338.0" type="curve" smooth="yes"/>
      <point x="218" y="338"/>
      <point x="236" y="309"/>
      <point x="236" y="283" type="curve" smooth="yes"/>
      <point x="236" y="253"/>
      <point x="213" y="232"/>
      <point x="176" y="232" type="curve" smooth="yes"/>
      <point x="146" y="232" type="line"/>
      <point x="146" y="172" type="line"/>
      <point x="176" y="172" type="line" smooth="yes"/>
      <point x="223" y="172"/>
      <point x="246" y="147"/>
      <point x="246" y="115" type="curve" smooth="yes"/>
      <point x="246.0" y="79.0"/>
      <point x="220" y="54"/>
      <point x="177" y="54" type="curve" smooth="yes"/>
      <point x="130.0" y="54.0"/>
      <point x="104.37514102893267" y="85.0"/>
      <point x="109.37514102893267" y="119.0" type="curve"/>
    </contour>
  </outline>
</glyph>
<glyph name="turkishlira.tab" format="2">
  <advance width="600"/>
  <outline>
    <contour>
      <point x="47" y="286" type="line"/>
      <point x="383" y="468" type="line"/>
      <point x="383" y="546" type="line"/>
      <point x="47" y="364" type="line"/>
    </contour>
    <contour>
      <point x="47" y="138" type="line"/>
      <point x="383" y="320" type="line"/>
      <point x="383" y="398" type="line"/>
      <point x="47" y="216" type="line"/>
    </contour>
    <contour>
      <point x="120" y="700" type="line"/>
      <point x="120" y="0" type="line"/>
      <point x="206" y="0" type="line"/>
      <point x="206" y="700" type="line"/>
    </contour>
    <contour>
      <point x="155" y="0" type="line"/>
      <point x="304" y="0" type="line" smooth="yes"/>
      <point x="464" y="0"/>
      <point x="540" y="90"/>
      <point x="561" y="233" type="curve"/>
      <point x="483" y="251" type="line"/>
      <point x="465" y="126"/>
      <point x="403" y="77"/>
      <point x="301" y="77" type="curve" smooth="yes"/>
      <point x="155" y="77" type="line"/>
    </contour>
  </outline>
</glyph>
<glyph name="two.sub" format="2">
  <advance width="343"/>
  <outline>
    <contour>
      <point x="306" y="-102" type="line"/>
      <point x="306" y="-38" type="line"/>
      <point x="82" y="-38" type="line"/>
      <point x="91" y="-74" type="line"/>
      <point x="223" y="32"/>
      <point x="303" y="89"/>
      <point x="303" y="170" type="curve" smooth="yes"/>
      <point x="303.0" y="230.0"/>
      <point x="265" y="296"/>
      <point x="168" y="296" type="curve" smooth="yes"/>
      <point x="76" y="296"/>
      <point x="32" y="235"/>
      <point x="32" y="177" type="curve" smooth="yes"/>
      <point x="32.0" y="158.0"/>
      <point x="37" y="142"/>
      <point x="45" y="128" type="curve"/>
      <point x="115" y="136" type="line"/>
      <point x="107" y="149"/>
      <point x="104" y="161"/>
      <point x="104" y="172" type="curve" smooth="yes"/>
      <point x="104.0" y="204.0"/>
      <point x="127" y="233"/>
      <point x="166" y="233" type="curve" smooth="yes"/>
      <point x="204" y="233"/>
      <point x="229" y="207"/>
      <point x="229" y="168" type="curve" smooth="yes"/>
      <point x="229" y="110"/>
      <point x="171" y="76"/>
      <point x="35" y="-41" type="curve"/>
      <point x="35" y="-102" type="line"/>
    </contour>
  </outline>
</glyph>
